{"title":"The.Martian.2015.HDTS.READNFO.XviD-MenaceIISociety","uid":12562908,"size":1456568156,"categoryP":"video","categoryS":"movies","magnet":"?xt=urn:btih:ea062220204bab22c918dc568e48bde1be0b6973&amp;dn=The.Martian.2015.HDTS.READNFO.XviD-MenaceIISociety&amp;tr=udp%3A%2F%2Ftracker.leechers-paradise.org%3A6969&amp;tr=udp%3A%2F%2Fzer0day.ch%3A1337&amp;tr=udp%3A%2F%2Fopen.demonii.com%3A1337&amp;tr=udp%3A%2F%2Ftracker.coppersurfer.tk%3A6969&amp;tr=udp%3A%2F%2Fexodus.desync.com%3A6969","seeders":0,"leechers":0,"uploader":"TvTeam","files":4,"time":1444738587,"description":"------------------------------------------------------------------------\r\n\r  https://www.torrenting.com\r\n\r\nSign up is OPEN - for time being. Come and have fun.\r\n\r\n------------------------------------------------------------------------[center][img]http://s23.postimg.org/i6313wztl/folder.png[/img]\n\nThe.Martian.2015.HDTS.READNFO.XviD-MenaceIISociety \nhttp://www.imdb.com/title/tt3659388/\n\nSource: Hive-CM8///S4NDMAN [THANKS]\n\nNOTE: Hive-CM8 and S4NDMAN are awesome for bringing us this to watch in english with direct line at such an early stage with a good video too so props to them and good job team :) i noticed the cam moved a few times so cut it into 4 parts and went to work on each piece, adjusting rotate, perspective, crop, the AR is on point all the way through and its straight more or less. :) also adjusted some gamma, gain, sat, hue, levels, contrast, it still has a couple of bright spots but nothing i could do to completely reduce them, its just how it was cammed,  then i muxed s4ndmans audio back to it and had to make 1 cut so it synced back in, enjoy. \n\nGeneral\nComplete name                            : The.Martian.2015.HDTS.READNFO.XviD-MenaceIISociety.avi\nFormat                                   : AVI\nFormat/Info                              : Audio Video Interleave\nFile size                                : 1.33 GiB\nDuration                                 : 2h 15mn\nOverall bit rate                         : 1 405 Kbps\nWriting application                      : Lavf55.37.101\nWriting library                          : VirtualDub build 35491/release\n\nVideo\nID                                       : 0\nFormat                                   : AVC\nFormat/Info                              : Advanced Video Codec\nFormat profile                           :   \nFormat settings, CABAC                   : No\nFormat settings, ReFrames                : 1 frame\nCodec ID                                 : H264\nDuration                                 : 2h 15mn\nBit rate                                 : 1 200 Kbps\nWidth                                    : 720 pixels\nHeight                                   : 304 pixels\nDisplay aspect ratio                     : 2.35:1\nFrame rate mode                          : Variable\nFrame rate                               : 29.970 fps\nColor space                              : YUV\nChroma subsampling                       : 4:2:0\nBit depth                                : 8 bits\nScan type                                : Progressive\nBits/(Pixel*Frame)                       : 0.183\nStream size                              : 1.14 GiB (85%)\nWriting library                          : x264 core 119\n\nAudio\nID                                       : 1\nFormat                                   : MPEG Audio\nFormat version                           : Version 1\nFormat profile                           : Layer 3\nMode                                     : Joint stereo\nMode extension                           : MS Stereo\nCodec ID                                 : 55\nCodec ID/Hint                            : MP3\nDuration                                 : 2h 15mn\nBit rate mode                            : Constant\nBit rate                                 : 192 Kbps\nChannel(s)                               : 2 channels\nSampling rate                            : 48.0 KHz\nCompression mode                         : Lossy\nStream size                              : 186 MiB (14%)\nAlignment                                : Split accross interleaves\nInterleave, duration                     : 33 ms (1.00 video frame)\nInterleave, preload duration             : 500 ms\nWriting library                          : LAME3.99r\n\n[img]http://i.imgur.com/ZeM2lic.jpg[/img] \n[img]http://i.imgur.com/ag1ZuSp.jpg[/img] \n[img]http://i.imgur.com/EABiXlQ.jpg[/img]\n[img]http://i.imgur.com/En9JPHh.jpg [/img]\n[img]http://i.imgur.com/3SWfrYw.jpg[/img] \n[img]http://i.imgur.com/LMUi4Bi.jpg[/img] \n[img]http://i.imgur.com/d0w20mb.jpg[/img] \n[img]http://i.imgur.com/jHxiani.jpg[/img] \n[img]http://i.imgur.com/dpEJrce.jpg[/img] \n[img]http://i.imgur.com/hjtk1jm.jpg[/img] \n[img]http://i.imgur.com/YlZK8Rl.jpg[/img] \n \n[img]http://s17.postimg.org/r1iiyw8yn/Untitled_1.png[/img][/center]","torrent":{"xt":"urn:btih:ea062220204bab22c918dc568e48bde1be0b6973","amp;dn":"The.Martian.2015.HDTS.READNFO.XviD-MenaceIISociety","amp;tr":["udp%3A%2F%2Ftracker.leechers-paradise.org%3A6969","udp%3A%2F%2Fzer0day.ch%3A1337","udp%3A%2F%2Fopen.demonii.com%3A1337","udp%3A%2F%2Ftracker.coppersurfer.tk%3A6969","udp%3A%2F%2Fexodus.desync.com%3A6969"],"infoHash":"ea062220204bab22c918dc568e48bde1be0b6973","infoHashBuffer":{"type":"Buffer","data":[234,6,34,32,32,75,171,34,201,24,220,86,142,72,189,225,190,11,105,115]},"announce":[],"urlList":[]}}